<svg width="245" height="244" viewBox="0 0 245 244" fill="none" xmlns="http://www.w3.org/2000/svg">
<rect x="0.5" width="244" height="244" rx="122" fill="#4889AE"/>
<path d="M129.583 129.583H143.75C145.629 129.583 147.43 130.33 148.759 131.658C150.087 132.986 150.833 134.788 150.833 136.667C150.833 138.545 150.087 140.347 148.759 141.675C147.43 143.004 145.629 143.75 143.75 143.75H122.5C121.569 143.753 120.647 143.571 119.786 143.217C118.925 142.862 118.143 142.34 117.485 141.682C116.827 141.023 116.305 140.241 115.95 139.381C115.595 138.52 115.414 137.598 115.417 136.667V108.333C115.417 106.455 116.163 104.653 117.491 103.325C118.82 101.996 120.621 101.25 122.5 101.25C124.379 101.25 126.18 101.996 127.509 103.325C128.837 104.653 129.583 106.455 129.583 108.333V129.583ZM79.0721 100.265C77.4536 99.5148 76.0502 98.3687 74.9913 96.9329C73.9324 95.4971 73.2521 93.8178 73.0131 92.0498C72.7742 90.2819 72.9842 88.4822 73.6239 86.8168C74.2636 85.1514 75.3124 83.6739 76.6735 82.5205C78.0346 81.3671 79.6642 80.5751 81.412 80.2174C83.1598 79.8596 84.9696 79.9478 86.6743 80.4737C88.3791 80.9996 89.924 81.9462 91.1666 83.2264C92.4091 84.5066 93.3093 86.079 93.7842 87.7987C96.3368 86.2976 99.0037 84.9997 101.76 83.9171C98.6622 81.7644 96.3327 78.6788 95.1111 75.1098C93.8894 71.5408 93.8394 67.6749 94.9683 64.0755C96.0972 60.4761 98.3461 57.3312 101.387 55.0992C104.428 52.8671 108.103 51.6645 111.875 51.6667H133.125C136.897 51.6645 140.572 52.8671 143.613 55.0992C146.654 57.3312 148.903 60.4761 150.032 64.0755C151.161 67.6749 151.111 71.5408 149.889 75.1098C148.667 78.6788 146.338 81.7644 143.24 83.9171C146.003 85.0079 148.673 86.3042 151.216 87.7987C151.691 86.079 152.591 84.5066 153.833 83.2264C155.076 81.9462 156.621 80.9996 158.326 80.4737C160.03 79.9478 161.84 79.8596 163.588 80.2174C165.336 80.5751 166.965 81.3671 168.327 82.5205C169.688 83.6739 170.736 85.1514 171.376 86.8168C172.016 88.4822 172.226 90.2819 171.987 92.0498C171.748 93.8178 171.068 95.4971 170.009 96.9329C168.95 98.3687 167.546 99.5148 165.928 100.265C172.855 108.531 177.279 118.601 178.682 129.293C180.084 139.985 178.407 150.855 173.847 160.628C169.286 170.4 162.032 178.668 152.936 184.46C143.84 190.253 133.28 193.33 122.496 193.33C111.713 193.33 101.153 190.253 92.0568 184.46C82.9609 178.668 75.7068 170.4 71.1463 160.628C66.5859 150.855 64.9085 139.985 66.3112 129.293C67.7139 118.601 72.1454 108.531 79.0721 100.265ZM122.5 179.167C133.772 179.167 144.582 174.689 152.552 166.719C160.522 158.748 165 147.938 165 136.667C165 125.395 160.522 114.585 152.552 106.615C144.582 98.6443 133.772 94.1667 122.5 94.1667C111.228 94.1667 100.418 98.6443 92.448 106.615C84.4777 114.585 80 125.395 80 136.667C80 147.938 84.4777 158.748 92.448 166.719C100.418 174.689 111.228 179.167 122.5 179.167ZM111.875 65.8333C110.936 65.8333 110.035 66.2065 109.371 66.8707C108.706 67.5348 108.333 68.4357 108.333 69.375C108.333 70.3143 108.706 71.2151 109.371 71.8793C110.035 72.5435 110.936 72.9167 111.875 72.9167H133.125C134.064 72.9167 134.965 72.5435 135.629 71.8793C136.294 71.2151 136.667 70.3143 136.667 69.375C136.667 68.4357 136.294 67.5348 135.629 66.8707C134.965 66.2065 134.064 65.8333 133.125 65.8333H111.875Z" fill="#EEF0F2"/>
</svg>
