<svg width="245" height="244" viewBox="0 0 245 244" fill="none" xmlns="http://www.w3.org/2000/svg">
<rect x="0.5" width="244" height="244" rx="122" fill="#4889AE"/>
<g clip-path="url(#clip0_45_318)">
<path d="M119.5 93.5C149.324 93.5 173.5 117.676 173.5 147.5C173.5 177.324 149.324 201.5 119.5 201.5C89.6758 201.5 65.5 177.324 65.5 147.5C65.5 117.676 89.6758 93.5 119.5 93.5ZM130.3 155.06L121.854 161.815C121.558 162.053 121.315 162.35 121.141 162.687C120.967 163.025 120.867 163.396 120.846 163.775C120.825 164.154 120.884 164.533 121.02 164.888C121.155 165.243 121.364 165.565 121.633 165.833L128.324 172.524C129.619 173.821 130.563 175.426 131.067 177.189L132.012 180.499C132.404 181.888 133.1 183.172 134.05 184.259C135 185.345 136.179 186.206 137.504 186.78C142.669 184.406 147.317 181.039 151.182 176.871L149.918 166.735C149.697 164.971 149.044 163.29 148.017 161.839C146.991 160.388 145.622 159.214 144.032 158.419L136.094 154.444C135.171 153.982 134.134 153.795 133.107 153.904C132.08 154.013 131.106 154.414 130.3 155.06ZM119.5 104.3C112.891 104.294 106.368 105.808 100.437 108.723C94.5055 111.639 89.3235 115.879 85.291 121.116L84.4 122.309V131.408C84.3993 134.705 85.4044 137.923 87.2812 140.634C89.1579 143.344 91.8169 145.417 94.903 146.577L95.8642 146.901L102.83 149.034C110.244 151.302 117.464 145.27 116.746 137.715L116.643 136.932L115.698 131.268C115.49 130.013 115.73 128.725 116.378 127.63C117.027 126.535 118.04 125.705 119.241 125.284L119.824 125.122L123.129 124.366C125.004 123.938 126.774 123.138 128.335 122.014C129.896 120.89 131.216 119.465 132.217 117.823C133.218 116.18 133.88 114.354 134.164 112.452C134.448 110.549 134.348 108.609 133.869 106.746C129.253 105.121 124.394 104.294 119.5 104.3Z" fill="#EEF0F2"/>
<path d="M144.473 78.7821C141.316 80.8521 137.691 81.9409 133.997 81.928C130.902 81.9015 127.843 81.2187 124.992 79.9183C122.796 83.2642 121.62 87.2655 121.629 91.3658V101.837C121.63 102.226 121.556 102.612 121.413 102.969C121.27 103.327 121.06 103.649 120.797 103.915C120.534 104.181 120.223 104.386 119.883 104.518C119.543 104.649 119.182 104.703 118.822 104.677C118.145 104.614 117.515 104.277 117.059 103.733C116.604 103.19 116.355 102.481 116.363 101.748V97.3309L103.653 83.6181C101.763 84.3786 99.7652 84.7764 97.7486 84.7934C94.9725 84.8008 92.2483 83.9813 89.8763 82.4251C82.7049 77.724 78.8445 66.905 79.5916 53.4727C79.6292 52.7778 79.902 52.122 80.3582 51.6297C80.8145 51.1375 81.4224 50.8432 82.0665 50.8026C94.5168 50.0108 104.545 54.1615 108.889 61.8985C110.596 64.9311 111.341 68.4808 111.012 72.0109C110.991 72.2844 110.898 72.5457 110.743 72.7631C110.588 72.9805 110.377 73.1448 110.138 73.236C109.898 73.3273 109.638 73.3417 109.391 73.2774C109.144 73.2131 108.919 73.0729 108.744 72.8737L102.425 65.7368C101.928 65.2266 101.265 64.9464 100.578 64.9558C99.8916 64.9653 99.2356 65.2638 98.7501 65.7876C98.2646 66.3114 97.988 67.0191 97.9792 67.7598C97.9704 68.5005 98.2301 69.2156 98.7031 69.7527L116.436 89.3703C116.455 89.0933 116.478 88.8164 116.505 88.5429C117.08 83.2764 119.235 78.3567 122.639 74.5319L139.289 55.5499C139.783 55.0173 140.061 54.2949 140.061 53.5414C140.061 52.788 139.784 52.0653 139.291 51.5323C138.797 50.9993 138.127 50.6996 137.429 50.6993C136.731 50.699 136.061 50.9979 135.567 51.5305L119.44 69.9302C119.279 70.1147 119.075 70.2491 118.849 70.3196C118.623 70.39 118.384 70.394 118.156 70.3309C117.928 70.2678 117.72 70.1401 117.554 69.961C117.387 69.7819 117.268 69.5579 117.209 69.3124C115.649 63.1058 116.337 56.9275 119.315 51.6228C125.193 41.1553 138.871 35.5523 155.906 36.6318C156.55 36.6723 157.158 36.9667 157.614 37.4589C158.07 37.9511 158.343 38.607 158.381 39.3019C159.368 57.6838 154.175 72.4405 144.473 78.7821Z" fill="#EEF0F2"/>
</g>
<defs>
<clipPath id="clip0_45_318">
<rect width="121" height="171" fill="white" transform="translate(62.5 36.5)"/>
</clipPath>
</defs>
</svg>
