<svg width="245" height="244" viewBox="0 0 245 244" fill="none" xmlns="http://www.w3.org/2000/svg">
<rect x="0.5" width="244" height="244" rx="122" fill="#4889AE"/>
<path d="M148.375 77.3594C141.427 69.335 133.607 62.1092 125.059 55.8156C124.303 55.2856 123.401 55.0013 122.478 55.0013C121.554 55.0013 120.652 55.2856 119.896 55.8156C111.364 62.1118 103.559 69.3375 96.625 77.3594C81.1619 95.1175 73 113.838 73 131.5C73 144.628 78.2152 157.219 87.4982 166.502C96.7813 175.785 109.372 181 122.5 181C135.628 181 148.219 175.785 157.502 166.502C166.785 157.219 172 144.628 172 131.5C172 113.838 163.838 95.1175 148.375 77.3594ZM153.916 136.754C152.749 143.271 149.613 149.275 144.931 153.957C140.248 158.638 134.244 161.773 127.726 162.938C127.486 162.977 127.243 162.997 127 163C125.871 163 124.784 162.575 123.953 161.811C123.123 161.046 122.61 159.997 122.517 158.873C122.423 157.748 122.756 156.629 123.449 155.738C124.142 154.847 125.144 154.248 126.257 154.062C135.578 152.493 143.487 144.584 145.067 135.246C145.267 134.069 145.927 133.02 146.9 132.329C147.874 131.638 149.082 131.362 150.259 131.562C151.436 131.762 152.486 132.421 153.177 133.395C153.868 134.368 154.144 135.577 153.944 136.754H153.916Z" fill="#EEF0F2"/>
</svg>
