<svg width="245" height="244" viewBox="0 0 245 244" fill="none" xmlns="http://www.w3.org/2000/svg">
<rect x="0.5" width="244" height="244" rx="122" fill="#4889AE"/>
<g clip-path="url(#clip0_45_303)">
<path d="M109.938 73.625C113.269 73.625 116.465 72.3015 118.821 69.9455C121.176 67.5896 122.5 64.3943 122.5 61.0625C122.5 57.7307 121.176 54.5354 118.821 52.1795C116.465 49.8235 113.269 48.5 109.938 48.5C106.606 48.5 103.41 49.8235 101.054 52.1795C98.6985 54.5354 97.375 57.7307 97.375 61.0625C97.375 64.3943 98.6985 67.5896 101.054 69.9455C103.41 72.3015 106.606 73.625 109.938 73.625ZM139.25 115.5C143.692 115.5 147.953 113.735 151.094 110.594C154.235 107.453 156 103.192 156 98.75C156 94.3076 154.235 90.0472 151.094 86.906C147.953 83.7647 143.692 82 139.25 82C134.808 82 130.547 83.7647 127.406 86.906C124.265 90.0472 122.5 94.3076 122.5 98.75C122.5 103.192 124.265 107.453 127.406 110.594C130.547 113.735 134.808 115.5 139.25 115.5ZM164.375 56.875C164.375 54.6538 163.493 52.5236 161.922 50.953C160.351 49.3824 158.221 48.5 156 48.5C153.779 48.5 151.649 49.3824 150.078 50.953C148.507 52.5236 147.625 54.6538 147.625 56.875C147.625 59.0962 148.507 61.2264 150.078 62.797C151.649 64.3676 153.779 65.25 156 65.25C158.221 65.25 160.351 64.3676 161.922 62.797C163.493 61.2264 164.375 59.0962 164.375 56.875ZM164.375 98.75C164.375 105.973 161.313 112.49 156.419 117.096C165.971 120.656 172.75 129.842 172.75 140.625C172.75 154.496 161.496 165.75 147.625 165.75H97.375C83.5039 165.75 72.25 154.496 72.25 140.625C72.25 126.754 83.5039 115.5 97.375 115.5H120.511C116.533 111.051 114.125 105.188 114.125 98.75H80.625C66.7539 98.75 55.5 110.004 55.5 123.875V157.375C55.5 171.246 66.7539 182.5 80.625 182.5H164.375C178.246 182.5 189.5 171.246 189.5 157.375V123.875C189.5 110.004 178.246 98.75 164.375 98.75ZM97.375 123.875C88.1363 123.875 80.625 131.386 80.625 140.625C80.625 149.864 88.1363 157.375 97.375 157.375H147.625C156.864 157.375 164.375 149.864 164.375 140.625C164.375 131.386 156.864 123.875 147.625 123.875H139.25H97.375Z" fill="#EEF0F2"/>
</g>
<defs>
<clipPath id="clip0_45_303">
<rect width="134" height="134" fill="white" transform="translate(55.5 48.5)"/>
</clipPath>
</defs>
</svg>
